<svg version="1.1" preserveAspectRatio="none" xmlns="http://www.w3.org/2000/svg" width="500" height="500" viewBox="0 0 500 500"><rect width="100%" height="100%" fill="#FFFFFF" fill-opacity="1"/><svg viewBox="726.1868 621.5452 499.4494 142.4" width="333" height="94.94295117783703" x="83.5px" y="202.5285px" xmlns="http://www.w3.org/2000/svg" xmlns:xlink="http://www.w3.org/1999/xlink" preserveAspectRatio="none"><defs></defs><style>.background {fill:#FFFFFF;fill-opacity:1;}.icon1 {fill:#0000FF;fill-opacity:1;}.icon1-str {stroke:#0000FF;stroke-opacity:1;}.icon2 {fill:#A9FF94;fill-opacity:1;}.icon3 {fill:#7AE061;fill-opacity:0.95;}.icon3-str {stroke:#7AE061;stroke-opacity:0.95;}.icon4 {fill:#64CC4B;fill-opacity:1;}.icon5 {fill:#9B9BFF;fill-opacity:1;}.icon6 {fill:#E6FFDF;fill-opacity:0.95;}.icon7 {fill:#C6C6FF;fill-opacity:1;}.icon8 {fill:#EFAFAA;fill-opacity:1;}</style><g opacity="1" transform="rotate(0 822.1866 621.5452)">
<svg width="403.4496" height="100" x="822.1866" y="621.5452" version="1.1" preserveAspectRatio="none" viewBox="0 0 403.4496 100">
  <defs><rect x="0" y="0" width="403.4496" height="100" rx="0px" ry="0px" id="id-B7crM0kCi1746983728675"></rect></defs><use class="icon1 icon3-str" style="stroke-width:0;" xlink:href="#id-B7crM0kCi1746983728675"></use>
</svg>
</g><g opacity="1" transform="rotate(0 821.8779 745.5452)">
<svg width="308.0673" height="18.4" x="821.8779" y="745.5452" version="1.1" preserveAspectRatio="none" viewBox="-0.16 -30.28 640.92 38.28">
  <g transform="matrix(1 0 0 1 0 0)" class="icon1"><path id="id-6izo4zJp29" d="M26.04-28L14.92-9.68L14.92 0L10.96 0L10.96-9.76L-0.16-28L4.12-28L13.08-13.24L22.08-28L26.04-28Z M38.20 0.24Q35.04 0.24 32.52-1.16Q30-2.56 28.58-5.02Q27.16-7.48 27.16-10.60L27.16-10.60Q27.16-13.72 28.58-16.18Q30-18.64 32.52-20.02Q35.04-21.40 38.20-21.40L38.20-21.40Q41.36-21.40 43.86-20.02Q46.36-18.64 47.78-16.18Q49.20-13.72 49.20-10.60L49.20-10.60Q49.20-7.48 47.78-5.02Q46.36-2.56 43.86-1.16Q41.36 0.24 38.20 0.24L38.20 0.24ZM38.20-3.12Q40.24-3.12 41.86-4.06Q43.48-5 44.40-6.70Q45.32-8.40 45.32-10.60L45.32-10.60Q45.32-12.80 44.40-14.50Q43.48-16.20 41.86-17.12Q40.24-18.04 38.20-18.04L38.20-18.04Q36.16-18.04 34.54-17.12Q32.92-16.20 31.98-14.50Q31.04-12.80 31.04-10.60L31.04-10.60Q31.04-8.40 31.98-6.70Q32.92-5 34.54-4.06Q36.16-3.12 38.20-3.12L38.20-3.12Z M72.44-21.20L76.28-21.20L76.28 0L72.64 0L72.64-3.20Q71.48-1.56 69.58-0.66Q67.68 0.24 65.44 0.24L65.44 0.24Q61.20 0.24 58.76-2.10Q56.32-4.44 56.32-9L56.32-9L56.32-21.20L60.16-21.20L60.16-9.44Q60.16-6.36 61.64-4.78Q63.12-3.20 65.88-3.20L65.88-3.20Q68.92-3.20 70.68-5.04Q72.44-6.88 72.44-10.24L72.44-10.24L72.44-21.20Z M89.28-17.64Q90.28-19.48 92.24-20.44Q94.20-21.40 97.00-21.40L97.00-21.40L97.00-17.68Q96.68-17.72 96.12-17.72L96.12-17.72Q93.00-17.72 91.22-15.86Q89.44-14 89.44-10.56L89.44-10.56L89.44 0L85.60 0L85.60-21.20L89.28-21.20L89.28-17.64Z M137.40-28L141.40-28L141.40 0L137.40 0L137.40-12.48L121.32-12.48L121.32 0L117.32 0L117.32-28L121.32-28L121.32-15.96L137.40-15.96L137.40-28Z M170.40-10.48Q170.40-10.04 170.32-9.32L170.32-9.32L153.12-9.32Q153.48-6.52 155.58-4.82Q157.68-3.12 160.80-3.12L160.80-3.12Q164.60-3.12 166.92-5.68L166.92-5.68L169.04-3.20Q167.60-1.52 165.46-0.64Q163.32 0.24 160.68 0.24L160.68 0.24Q157.32 0.24 154.72-1.14Q152.12-2.52 150.70-5Q149.28-7.48 149.28-10.60L149.28-10.60Q149.28-13.68 150.66-16.16Q152.04-18.64 154.46-20.02Q156.88-21.40 159.92-21.40L159.92-21.40Q162.96-21.40 165.34-20.02Q167.72-18.64 169.06-16.16Q170.40-13.68 170.40-10.48L170.40-10.48ZM159.92-18.16Q157.16-18.16 155.30-16.48Q153.44-14.80 153.12-12.08L153.12-12.08L166.72-12.08Q166.40-14.76 164.54-16.46Q162.68-18.16 159.92-18.16L159.92-18.16Z M184.84-21.40Q189.24-21.40 191.58-19.24Q193.92-17.08 193.92-12.80L193.92-12.80L193.92 0L190.28 0L190.28-2.80Q189.32-1.32 187.54-0.54Q185.76 0.24 183.32 0.24L183.32 0.24Q179.76 0.24 177.62-1.48Q175.48-3.20 175.48-6L175.48-6Q175.48-8.80 177.52-10.50Q179.56-12.20 184.00-12.20L184.00-12.20L190.08-12.20L190.08-12.96Q190.08-15.44 188.64-16.76Q187.20-18.08 184.40-18.08L184.40-18.08Q182.52-18.08 180.72-17.46Q178.92-16.84 177.68-15.80L177.68-15.80L176.08-18.68Q177.72-20 180.00-20.70Q182.28-21.40 184.84-21.40L184.84-21.40ZM183.96-2.72Q186.16-2.72 187.76-3.70Q189.36-4.68 190.08-6.48L190.08-6.48L190.08-9.44L184.16-9.44Q179.28-9.44 179.28-6.16L179.28-6.16Q179.28-4.56 180.52-3.64Q181.76-2.72 183.96-2.72L183.96-2.72Z M203.04 0L203.04-29.68L206.88-29.68L206.88 0L203.04 0Z M227.44-4L228.64-1.24Q227.80-0.52 226.56-0.14Q225.32 0.24 224.00 0.24L224.00 0.24Q220.80 0.24 219.04-1.48Q217.28-3.20 217.28-6.40L217.28-6.40L217.28-18.04L213.68-18.04L213.68-21.20L217.28-21.20L217.28-25.84L221.12-25.84L221.12-21.20L227.20-21.20L227.20-18.04L221.12-18.04L221.12-6.56Q221.12-4.84 221.98-3.92Q222.84-3 224.44-3L224.44-3Q226.20-3 227.44-4L227.44-4Z M246.60-21.40Q250.64-21.40 253.02-19.06Q255.40-16.72 255.40-12.20L255.40-12.20L255.40 0L251.56 0L251.56-11.76Q251.56-14.84 250.08-16.40Q248.60-17.96 245.84-17.96L245.84-17.96Q242.72-17.96 240.92-16.14Q239.12-14.32 239.12-10.92L239.12-10.92L239.12 0L235.28 0L235.28-29.68L239.12-29.68L239.12-18.20Q240.32-19.72 242.26-20.56Q244.20-21.40 246.60-21.40L246.60-21.40Z M265.48-5.24Q266.60-5.24 267.34-4.46Q268.08-3.68 268.08-2.52L268.08-2.52Q268.08-1.92 267.94-1.36Q267.80-0.80 267.40 0.36L267.40 0.36L265.52 5.92L263.00 5.92L264.48-0.04Q263.72-0.32 263.26-0.98Q262.80-1.64 262.80-2.52L262.80-2.52Q262.80-3.72 263.56-4.48Q264.32-5.24 265.48-5.24L265.48-5.24Z M301.56 0.32Q297.32 0.32 293.92-1.54Q290.52-3.40 288.58-6.68Q286.64-9.96 286.64-14L286.64-14Q286.64-18.04 288.58-21.32Q290.52-24.60 293.92-26.46Q297.32-28.32 301.56-28.32L301.56-28.32Q305.76-28.32 309.16-26.46Q312.56-24.60 314.48-21.34Q316.40-18.08 316.40-14L316.40-14Q316.40-9.92 314.48-6.66Q312.56-3.40 309.16-1.54Q305.76 0.32 301.56 0.32L301.56 0.32ZM301.56-3.24Q304.64-3.24 307.10-4.64Q309.56-6.04 310.98-8.50Q312.40-10.96 312.40-14L312.40-14Q312.40-17.04 310.98-19.50Q309.56-21.96 307.10-23.36Q304.64-24.76 301.56-24.76L301.56-24.76Q298.48-24.76 295.98-23.36Q293.48-21.96 292.06-19.50Q290.64-17.04 290.64-14L290.64-14Q290.64-10.96 292.06-8.50Q293.48-6.04 295.98-4.64Q298.48-3.24 301.56-3.24L301.56-3.24Z M339.88-21.20L343.72-21.20L343.72 0L340.08 0L340.08-3.20Q338.92-1.56 337.02-0.66Q335.12 0.24 332.88 0.24L332.88 0.24Q328.64 0.24 326.20-2.10Q323.76-4.44 323.76-9L323.76-9L323.76-21.20L327.60-21.20L327.60-9.44Q327.60-6.36 329.08-4.78Q330.56-3.20 333.32-3.20L333.32-3.20Q336.36-3.20 338.12-5.04Q339.88-6.88 339.88-10.24L339.88-10.24L339.88-21.20Z M356.72-17.64Q357.72-19.48 359.68-20.44Q361.64-21.40 364.44-21.40L364.44-21.40L364.44-17.68Q364.12-17.72 363.56-17.72L363.56-17.72Q360.44-17.72 358.66-15.86Q356.88-14 356.88-10.56L356.88-10.56L356.88 0L353.04 0L353.04-21.20L356.72-21.20L356.72-17.64Z M384.76 0L384.76-28L388.76-28L388.76 0L384.76 0Z M409.92-21.40Q413.96-21.40 416.34-19.06Q418.72-16.72 418.72-12.20L418.72-12.20L418.72 0L414.88 0L414.88-11.76Q414.88-14.84 413.40-16.40Q411.92-17.96 409.16-17.96L409.16-17.96Q406.04-17.96 404.24-16.14Q402.44-14.32 402.44-10.92L402.44-10.92L402.44 0L398.60 0L398.60-21.20L402.28-21.20L402.28-18Q403.44-19.64 405.42-20.52Q407.40-21.40 409.92-21.40L409.92-21.40Z M438.56-4L439.76-1.24Q438.92-0.52 437.68-0.14Q436.44 0.24 435.12 0.24L435.12 0.24Q431.92 0.24 430.16-1.48Q428.40-3.20 428.40-6.40L428.40-6.40L428.40-18.04L424.80-18.04L424.80-21.20L428.40-21.20L428.40-25.84L432.24-25.84L432.24-21.20L438.32-21.20L438.32-18.04L432.24-18.04L432.24-6.56Q432.24-4.84 433.10-3.92Q433.96-3 435.56-3L435.56-3Q437.32-3 438.56-4L438.56-4Z M464.84-10.48Q464.84-10.04 464.76-9.32L464.76-9.32L447.56-9.32Q447.92-6.52 450.02-4.82Q452.12-3.12 455.24-3.12L455.24-3.12Q459.04-3.12 461.36-5.68L461.36-5.68L463.48-3.20Q462.04-1.52 459.90-0.64Q457.76 0.24 455.12 0.24L455.12 0.24Q451.76 0.24 449.16-1.14Q446.56-2.52 445.14-5Q443.72-7.48 443.72-10.60L443.72-10.60Q443.72-13.68 445.10-16.16Q446.48-18.64 448.90-20.02Q451.32-21.40 454.36-21.40L454.36-21.40Q457.40-21.40 459.78-20.02Q462.16-18.64 463.50-16.16Q464.84-13.68 464.84-10.48L464.84-10.48ZM454.36-18.16Q451.60-18.16 449.74-16.48Q447.88-14.80 447.56-12.08L447.56-12.08L461.16-12.08Q460.84-14.76 458.98-16.46Q457.12-18.16 454.36-18.16L454.36-18.16Z M472.16 0L472.16-29.68L476-29.68L476 0L472.16 0Z M485.32 0L485.32-29.68L489.16-29.68L489.16 0L485.32 0Z M498.48 0L498.48-21.20L502.32-21.20L502.32 0L498.48 0ZM500.40-25.28Q499.28-25.28 498.54-26Q497.80-26.72 497.80-27.76L497.80-27.76Q497.80-28.80 498.54-29.54Q499.28-30.28 500.40-30.28L500.40-30.28Q501.52-30.28 502.26-29.58Q503.00-28.88 503.00-27.84L503.00-27.84Q503.00-26.76 502.26-26.02Q501.52-25.28 500.40-25.28L500.40-25.28Z M528.28-21.20L531.92-21.20L531.92-2.88Q531.92 2.68 529.16 5.34Q526.40 8 520.92 8L520.92 8Q517.92 8 515.20 7.18Q512.48 6.36 510.80 4.84L510.80 4.84L512.64 1.88Q514.12 3.16 516.30 3.90Q518.48 4.64 520.80 4.64L520.80 4.64Q524.52 4.64 526.30 2.88Q528.08 1.12 528.08-2.48L528.08-2.48L528.08-4.16Q526.72-2.52 524.74-1.70Q522.76-0.88 520.44-0.88L520.44-0.88Q517.40-0.88 514.94-2.18Q512.48-3.48 511.08-5.82Q509.68-8.16 509.68-11.16L509.68-11.16Q509.68-14.16 511.08-16.50Q512.48-18.84 514.94-20.12Q517.40-21.40 520.44-21.40L520.44-21.40Q522.84-21.40 524.90-20.52Q526.96-19.64 528.28-17.92L528.28-17.92L528.28-21.20ZM520.88-4.24Q522.96-4.24 524.62-5.12Q526.28-6 527.22-7.58Q528.16-9.16 528.16-11.16L528.16-11.16Q528.16-14.24 526.12-16.14Q524.08-18.04 520.88-18.04L520.88-18.04Q517.64-18.04 515.60-16.14Q513.56-14.24 513.56-11.16L513.56-11.16Q513.56-9.16 514.50-7.58Q515.44-6 517.10-5.12Q518.76-4.24 520.88-4.24L520.88-4.24Z M560.40-10.48Q560.40-10.04 560.32-9.32L560.32-9.32L543.12-9.32Q543.48-6.52 545.58-4.82Q547.68-3.12 550.80-3.12L550.80-3.12Q554.60-3.12 556.92-5.68L556.92-5.68L559.04-3.20Q557.60-1.52 555.46-0.64Q553.32 0.24 550.68 0.24L550.68 0.24Q547.32 0.24 544.72-1.14Q542.12-2.52 540.70-5Q539.28-7.48 539.28-10.60L539.28-10.60Q539.28-13.68 540.66-16.16Q542.04-18.64 544.46-20.02Q546.88-21.40 549.92-21.40L549.92-21.40Q552.96-21.40 555.34-20.02Q557.72-18.64 559.06-16.16Q560.40-13.68 560.40-10.48L560.40-10.48ZM549.92-18.16Q547.16-18.16 545.30-16.48Q543.44-14.80 543.12-12.08L543.12-12.08L556.72-12.08Q556.40-14.76 554.54-16.46Q552.68-18.16 549.92-18.16L549.92-18.16Z M579.04-21.40Q583.08-21.40 585.46-19.06Q587.84-16.72 587.84-12.20L587.84-12.20L587.84 0L584 0L584-11.76Q584-14.84 582.52-16.40Q581.04-17.96 578.28-17.96L578.28-17.96Q575.16-17.96 573.36-16.14Q571.56-14.32 571.56-10.92L571.56-10.92L571.56 0L567.72 0L567.72-21.20L571.40-21.20L571.40-18Q572.56-19.64 574.54-20.52Q576.52-21.40 579.04-21.40L579.04-21.40Z M606.32 0.24Q603.08 0.24 600.54-1.16Q598-2.56 596.56-5.02Q595.12-7.48 595.12-10.60L595.12-10.60Q595.12-13.72 596.56-16.18Q598-18.64 600.54-20.02Q603.08-21.40 606.32-21.40L606.32-21.40Q609.20-21.40 611.46-20.24Q613.72-19.08 614.96-16.88L614.96-16.88L612.04-15Q611.04-16.52 609.56-17.28Q608.08-18.04 606.28-18.04L606.28-18.04Q604.20-18.04 602.54-17.12Q600.88-16.20 599.94-14.50Q599-12.80 599-10.60L599-10.60Q599-8.36 599.94-6.66Q600.88-4.96 602.54-4.04Q604.20-3.12 606.28-3.12L606.28-3.12Q608.08-3.12 609.56-3.88Q611.04-4.64 612.04-6.16L612.04-6.16L614.96-4.32Q613.72-2.12 611.46-0.94Q609.20 0.24 606.32 0.24L606.32 0.24Z M640.76-10.48Q640.76-10.04 640.68-9.32L640.68-9.32L623.48-9.32Q623.84-6.52 625.94-4.82Q628.04-3.12 631.16-3.12L631.16-3.12Q634.96-3.12 637.28-5.68L637.28-5.68L639.40-3.20Q637.96-1.52 635.82-0.64Q633.68 0.24 631.04 0.24L631.04 0.24Q627.68 0.24 625.08-1.14Q622.48-2.52 621.06-5Q619.64-7.48 619.64-10.60L619.64-10.60Q619.64-13.68 621.02-16.16Q622.40-18.64 624.82-20.02Q627.24-21.40 630.28-21.40L630.28-21.40Q633.32-21.40 635.70-20.02Q638.08-18.64 639.42-16.16Q640.76-13.68 640.76-10.48L640.76-10.48ZM630.28-18.16Q627.52-18.16 625.66-16.48Q623.80-14.80 623.48-12.08L623.48-12.08L637.08-12.08Q636.76-14.76 634.90-16.46Q633.04-18.16 630.28-18.16L630.28-18.16Z"/></g>
</svg>
</g><g opacity="1" transform="rotate(0 852.1866 651.5452)">
<svg width="343.4496" height="40" x="852.1866" y="651.5452" version="1.1" preserveAspectRatio="none" viewBox="3.32 -31.48 273.04 31.8">
  <g transform="matrix(1 0 0 1 0 0)" class="background"><path id="id-D6z1nYkh12" d="M34.88 0L28.80 0L28.76-16.80L20.52-2.96L17.60-2.96L9.40-16.44L9.40 0L3.32 0L3.32-28L8.68-28L19.16-10.60L29.48-28L34.80-28L34.88 0Z M62.16-10.68Q62.16-10.56 62.04-9L62.04-9L45.76-9Q46.20-7 47.84-5.84Q49.48-4.68 51.92-4.68L51.92-4.68Q53.60-4.68 54.90-5.18Q56.20-5.68 57.32-6.76L57.32-6.76L60.64-3.16Q57.60 0.32 51.76 0.32L51.76 0.32Q48.12 0.32 45.32-1.10Q42.52-2.52 41-5.04Q39.48-7.56 39.48-10.76L39.48-10.76Q39.48-13.92 40.98-16.46Q42.48-19 45.10-20.42Q47.72-21.84 50.96-21.84L50.96-21.84Q54.12-21.84 56.68-20.48Q59.24-19.12 60.70-16.58Q62.16-14.04 62.16-10.68L62.16-10.68ZM51-17.12Q48.88-17.12 47.44-15.92Q46-14.72 45.68-12.64L45.68-12.64L56.28-12.64Q55.96-14.68 54.52-15.90Q53.08-17.12 51-17.12L51-17.12Z M82-29.68L88.24-29.68L88.24 0L82.28 0L82.28-2.48Q79.96 0.32 75.56 0.32L75.56 0.32Q72.52 0.32 70.06-1.04Q67.60-2.40 66.20-4.92Q64.80-7.44 64.80-10.76L64.80-10.76Q64.80-14.08 66.20-16.60Q67.60-19.12 70.06-20.48Q72.52-21.84 75.56-21.84L75.56-21.84Q79.68-21.84 82-19.24L82-19.24L82-29.68ZM76.64-4.80Q79-4.80 80.56-6.42Q82.12-8.04 82.12-10.76L82.12-10.76Q82.12-13.48 80.56-15.10Q79-16.72 76.64-16.72L76.64-16.72Q74.24-16.72 72.68-15.10Q71.12-13.48 71.12-10.76L71.12-10.76Q71.12-8.04 72.68-6.42Q74.24-4.80 76.64-4.80L76.64-4.80Z M94 0L94-21.52L100.24-21.52L100.24 0L94 0ZM97.12-24.52Q95.40-24.52 94.32-25.52Q93.24-26.52 93.24-28L93.24-28Q93.24-29.48 94.32-30.48Q95.40-31.48 97.12-31.48L97.12-31.48Q98.84-31.48 99.92-30.52Q101-29.56 101-28.12L101-28.12Q101-26.56 99.92-25.54Q98.84-24.52 97.12-24.52L97.12-24.52Z M118.60-28Q122.32-28 125.06-26.76Q127.80-25.52 129.28-23.24Q130.76-20.96 130.76-17.84L130.76-17.84Q130.76-14.76 129.28-12.46Q127.80-10.16 125.06-8.94Q122.32-7.72 118.60-7.72L118.60-7.72L112.96-7.72L112.96 0L106.48 0L106.48-28L118.60-28ZM118.24-13Q121.16-13 122.68-14.26Q124.20-15.52 124.20-17.84L124.20-17.84Q124.20-20.20 122.68-21.46Q121.16-22.72 118.24-22.72L118.24-22.72L112.96-22.72L112.96-13L118.24-13Z M140.88-18.68Q142-20.24 143.90-21.04Q145.80-21.84 148.28-21.84L148.28-21.84L148.28-16.08Q147.24-16.16 146.88-16.16L146.88-16.16Q144.20-16.16 142.68-14.66Q141.16-13.16 141.16-10.16L141.16-10.16L141.16 0L134.92 0L134.92-21.52L140.88-21.52L140.88-18.68Z M172.88-10.68Q172.88-10.56 172.76-9L172.76-9L156.48-9Q156.92-7 158.56-5.84Q160.20-4.68 162.64-4.68L162.64-4.68Q164.32-4.68 165.62-5.18Q166.92-5.68 168.04-6.76L168.04-6.76L171.36-3.16Q168.32 0.32 162.48 0.32L162.48 0.32Q158.84 0.32 156.04-1.10Q153.24-2.52 151.72-5.04Q150.20-7.56 150.20-10.76L150.20-10.76Q150.20-13.92 151.70-16.46Q153.20-19 155.82-20.42Q158.44-21.84 161.68-21.84L161.68-21.84Q164.84-21.84 167.40-20.48Q169.96-19.12 171.42-16.58Q172.88-14.04 172.88-10.68L172.88-10.68ZM161.72-17.12Q159.60-17.12 158.16-15.92Q156.72-14.72 156.40-12.64L156.40-12.64L167-12.64Q166.68-14.68 165.24-15.90Q163.80-17.12 161.72-17.12L161.72-17.12Z M192.72-29.68L198.96-29.68L198.96 0L193 0L193-2.48Q190.68 0.32 186.28 0.32L186.28 0.32Q183.24 0.32 180.78-1.04Q178.32-2.40 176.92-4.92Q175.52-7.44 175.52-10.76L175.52-10.76Q175.52-14.08 176.92-16.60Q178.32-19.12 180.78-20.48Q183.24-21.84 186.28-21.84L186.28-21.84Q190.40-21.84 192.72-19.24L192.72-19.24L192.72-29.68ZM187.36-4.80Q189.72-4.80 191.28-6.42Q192.84-8.04 192.84-10.76L192.84-10.76Q192.84-13.48 191.28-15.10Q189.72-16.72 187.36-16.72L187.36-16.72Q184.96-16.72 183.40-15.10Q181.84-13.48 181.84-10.76L181.84-10.76Q181.84-8.04 183.40-6.42Q184.96-4.80 187.36-4.80L187.36-4.80Z M204.72 0L204.72-21.52L210.96-21.52L210.96 0L204.72 0ZM207.84-24.52Q206.12-24.52 205.04-25.52Q203.96-26.52 203.96-28L203.96-28Q203.96-29.48 205.04-30.48Q206.12-31.48 207.84-31.48L207.84-31.48Q209.56-31.48 210.64-30.52Q211.72-29.56 211.72-28.12L211.72-28.12Q211.72-26.56 210.64-25.54Q209.56-24.52 207.84-24.52L207.84-24.52Z M227.16 0.32Q223.72 0.32 220.98-1.10Q218.24-2.52 216.70-5.04Q215.16-7.56 215.16-10.76L215.16-10.76Q215.16-13.96 216.70-16.48Q218.24-19 220.98-20.42Q223.72-21.84 227.16-21.84L227.16-21.84Q230.56-21.84 233.10-20.42Q235.64-19 236.80-16.36L236.80-16.36L231.96-13.76Q230.28-16.72 227.12-16.72L227.12-16.72Q224.68-16.72 223.08-15.12Q221.48-13.52 221.48-10.76L221.48-10.76Q221.48-8 223.08-6.40Q224.68-4.80 227.12-4.80L227.12-4.80Q230.32-4.80 231.96-7.76L231.96-7.76L236.80-5.12Q235.64-2.56 233.10-1.12Q230.56 0.32 227.16 0.32L227.16 0.32Z M252.92-5.44L254.60-1.04Q253.68-0.36 252.34-0.02Q251.00 0.32 249.52 0.32L249.52 0.32Q245.68 0.32 243.58-1.64Q241.48-3.60 241.48-7.40L241.48-7.40L241.48-16.24L238.16-16.24L238.16-21.04L241.48-21.04L241.48-26.28L247.72-26.28L247.72-21.04L253.08-21.04L253.08-16.24L247.72-16.24L247.72-7.48Q247.72-6.12 248.42-5.38Q249.12-4.64 250.40-4.64L250.40-4.64Q251.88-4.64 252.92-5.44L252.92-5.44Z M276.36-16.44L276.36-11.56L269.40-11.56L269.40-4.76L264.24-4.76L264.24-11.56L257.32-11.56L257.32-16.44L264.24-16.44L264.24-23.24L269.40-23.24L269.40-16.44L276.36-16.44Z"/></g>
</svg>
</g><g opacity="1" transform="rotate(0 726.1868 621.5452)">
<svg width="99.9998" height="100" x="726.1868" y="621.5452" version="1.1" preserveAspectRatio="none" viewBox="0 0 99.9998 100">
  <defs><rect x="1.9999959999999999" y="1.9999959999999999" width="95.99980799999999" height="96.000008" rx="0px" ry="0px" id="id-tBXipXk0b1746983728675"></rect></defs><use class="background icon1-str" style="stroke-width:3.9999919999999998;" xlink:href="#id-tBXipXk0b1746983728675"></use>
</svg>
</g><g opacity="1" transform="rotate(0 746.1868 641.5594)">
<svg width="59.9998" height="59.9717" x="746.1868" y="641.5594" version="1.1" preserveAspectRatio="none" viewBox="20.04999542236328 20.049999237060547 159.97500610351562 159.89999389648438">
  <g transform="matrix(1 0 0 1 0 0)"><g><path d="M171.7 123.4L76.6 28.3c-11.1-11-29-11-40 0l-8.3 8.3c-11 11.1-11 29 0 40l95.1 95.1c11.1 11 29 11 40 0l8.3-8.3c11.1-11.1 11.1-29 0-40zM47.2 61.6c-1.8 1.8-4.8 1.8-6.7 0-1.8-1.8-1.8-4.8 0-6.7 1.8-1.8 4.8-1.8 6.7 0 1.8 1.9 1.8 4.9 0 6.7zM60.5 75c-1.8 1.8-4.8 1.8-6.7 0-1.8-1.8-1.8-4.8 0-6.7 1.8-1.8 4.8-1.8 6.7 0 1.9 1.8 1.9 4.8 0 6.7zm1.7-28.4c-1.8 1.8-4.8 1.8-6.7 0-1.8-1.8-1.8-4.8 0-6.7 1.8-1.8 4.8-1.8 6.7 0 1.8 1.9 1.8 4.9 0 6.7zM68.9 60c-1.8-1.8-1.8-4.8 0-6.7 1.8-1.8 4.8-1.8 6.7 0 1.8 1.8 1.8 4.8 0 6.7-1.9 1.8-4.9 1.8-6.7 0zm47.8 56.7c-9.4 9.1-24.3 8.8-33.4-.6-8.9-9.1-8.9-23.7 0-32.8 9.2-9.2 24.1-9.2 33.4 0 9.2 9.2 9.2 24.2 0 33.4zm17.2 31.7c-1.8 1.8-4.8 1.8-6.7 0-1.8-1.8-1.8-4.8 0-6.7s4.8-1.8 6.7 0c1.9 1.9 1.9 4.8 0 6.7zm13.4 13.3c-1.8 1.8-4.8 1.8-6.7 0-1.8-1.8-1.8-4.8 0-6.7 1.8-1.8 4.8-1.8 6.7 0 1.8 1.9 1.8 4.9 0 6.7zm1.6-28.3c-1.8 1.8-4.8 1.8-6.7 0s-1.8-4.8 0-6.7c1.8-1.8 4.8-1.8 6.7 0 1.9 1.8 1.9 4.8 0 6.7zm13.4 13.3c-1.8 1.8-4.8 1.8-6.7 0-1.8-1.8-1.8-4.8 0-6.7 1.8-1.8 4.8-1.8 6.7 0 1.8 1.9 1.8 4.9 0 6.7z" data-color="1" class="icon1"></path><path d="M171.7 36.6l-8.3-8.3c-11.1-11-29-11-40 0l-95.1 95.1c-11 11.1-11 29 0 40l8.3 8.3c11.1 11 29 11 40 0l95.1-95.1c11.1-11 11.1-28.9 0-40zm-55 80.1c-9.4 9-24.3 8.7-33.4-.7-8.8-9.1-8.8-23.6 0-32.7 9.2-9.2 24.1-9.2 33.4 0 9.2 9.2 9.2 24.2 0 33.4z" data-color="2" class="icon2"></path></g></g>
</svg>
</g></svg></svg>